<svg xmlns="http://www.w3.org/2000/svg" viewBox="0 0 1200 630"><defs><linearGradient id="g" x1="0" y1="0" x2="1" y2="1"><stop offset="0" stop-color="#0d9488"/><stop offset="1" stop-color="#0e7490"/></linearGradient></defs><rect width="1200" height="630" fill="url(#g)"/><circle cx="1050" cy="80" r="260" fill="#fff" opacity=".1"/><g transform="translate(610,150) scale(2.4)"><rect x="55" y="40" width="130" height="92" rx="8" fill="#fff"/><rect x="105" y="92" width="30" height="40" rx="3" fill="#0d9488" opacity=".55"/><path d="M112 48h16v12h12v16h-12v12h-16V76h-12V60h12z" fill="#ef4444"/><g fill="#fff" opacity=".35"><rect x="20" y="78" width="30" height="54" rx="5"/><rect x="190" y="70" width="30" height="62" rx="5"/></g><rect x="65" y="84" width="22" height="14" rx="2" fill="#0d9488" opacity=".3"/><rect x="153" y="84" width="22" height="14" rx="2" fill="#0d9488" opacity=".3"/></g><text x="70" y="270" font-family="Arial,sans-serif" font-weight="700" font-size="78" fill="#fff">SmartCare</text><text x="70" y="350" font-family="Arial,sans-serif" font-weight="700" font-size="78" fill="#fff">Hospital Suite</text><text x="72" y="420" font-family="Arial,sans-serif" font-size="30" fill="#fff" opacity=".9">Queue · Pharmacy · Blood Bank · Lab · Ambulance · Beds</text></svg>